<svg width="16" height="19" viewBox="0 0 16 19" fill="none" xmlns="http://www.w3.org/2000/svg">
<path d="M12 2.49998H9.35004C9.00004 1.53331 8.08337 0.833313 7.00004 0.833313C5.91671 0.833313 5.00004 1.53331 4.65004 2.49998H2.00004C1.08337 2.49998 0.333374 3.24998 0.333374 4.16665V16.6666C0.333374 17.5833 1.08337 18.3333 2.00004 18.3333H7.09171C6.60004 17.8583 6.20004 17.2916 5.90837 16.6666H2.00004V4.16665H3.66671V4.99998C3.66671 5.91665 4.41671 6.66665 5.33337 6.66665H8.66671C9.58337 6.66665 10.3334 5.91665 10.3334 4.99998V4.16665H12V8.39998C12.5917 8.48331 13.15 8.65831 13.6667 8.89998V4.16665C13.6667 3.24998 12.9167 2.49998 12 2.49998ZM7.00004 4.16665C6.54171 4.16665 6.16671 3.79165 6.16671 3.33331C6.16671 2.87498 6.54171 2.49998 7.00004 2.49998C7.45837 2.49998 7.83337 2.87498 7.83337 3.33331C7.83337 3.79165 7.45837 4.16665 7.00004 4.16665ZM11.1667 9.99998C8.86671 9.99998 7.00004 11.8666 7.00004 14.1666C7.00004 16.4666 8.86671 18.3333 11.1667 18.3333C13.4667 18.3333 15.3334 16.4666 15.3334 14.1666C15.3334 11.8666 13.4667 9.99998 11.1667 9.99998ZM12.2417 15.8333L10.8667 14.4583C10.7917 14.3833 10.7417 14.275 10.7417 14.1666V12.0916C10.7417 11.8583 10.925 11.675 11.1584 11.675C11.3917 11.675 11.575 11.8583 11.575 12.0916V14L12.825 15.25C12.9917 15.4166 12.9917 15.675 12.825 15.8416C12.6667 16 12.4084 16 12.2417 15.8333Z" fill="#222225"/>
</svg>
